<svg width="76" height="80" viewBox="0 0 76 80" fill="none" xmlns="http://www.w3.org/2000/svg">
<g clip-path="url(#clip0_5_514)">
<path d="M15.3197 7.65897C15.3197 3.43784 11.8801 0 7.65897 0C3.43784 0 0 3.43784 0 7.65897V37.4461C0 38.9611 1.24293 40.204 2.75785 40.204H15.3197V7.65897Z" fill="#45F882"/>
<path d="M16.1698 41.0562H15.3193V41.9066H16.1698V41.0562Z" fill="#45F882"/>
<path d="M54.0445 37.7216C53.6193 37.5908 52.8222 37.348 52.6053 37.4307C52.4194 37.5494 52.1336 38.2759 51.9615 38.7115C51.5707 39.7013 51.1283 40.822 50.1057 41.0544C49.4378 41.2111 48.8507 40.9029 48.293 40.4691L52.6983 51.1166L53.8896 48.1384C54.0256 47.7976 54.2804 47.5256 54.6212 47.3896C54.9621 47.2536 55.3356 47.2536 55.6593 47.4068L58.6048 48.6669L54.0721 37.7319C54.0635 37.7285 54.0531 37.7268 54.0445 37.7233V37.7216Z" fill="#45F882"/>
<path d="M46.2829 31.2694C50.1288 31.2694 53.2602 28.1397 53.2602 24.2904C53.2602 20.4411 50.1305 17.3132 46.2829 17.3132C42.4354 17.3132 39.3057 20.4429 39.3057 24.2904C39.3057 28.138 42.4354 31.2694 46.2829 31.2694Z" fill="#45F882"/>
<path d="M67.8827 0H13.0391C13.1234 0.0516451 13.1923 0.101569 13.2594 0.170429C13.4471 0.306428 13.6519 0.459642 13.8206 0.63007C13.8723 0.6645 13.905 0.698931 13.9566 0.748854C14.177 0.953713 14.3991 1.15685 14.5867 1.37892C14.6383 1.43057 14.6883 1.49771 14.7399 1.54935C14.8931 1.737 15.0463 1.92464 15.1996 2.12778C15.4715 2.50307 15.7263 2.87663 15.9312 3.28463C16.05 3.48949 16.1533 3.70984 16.2376 3.93191C16.5096 4.52755 16.6973 5.15763 16.8333 5.80491C16.9021 6.09412 16.9348 6.40055 16.9693 6.70698C17.0037 7.01341 17.0209 7.33705 17.0209 7.66069V72.3428C17.0209 76.5639 20.4415 80.0017 24.6644 80.0017H67.881C72.1021 80.0017 75.54 76.5639 75.54 72.3428V7.65897C75.54 3.43784 72.1021 0 67.881 0H67.8827ZM30.972 21.9475C31.3541 21.6858 31.9928 21.2502 32.0686 21.0402C32.1013 20.8181 31.6829 20.0899 31.4592 19.6974C30.9375 18.7885 30.3453 17.7573 30.7929 16.8294C31.2457 15.8895 32.4335 15.7104 33.4802 15.5503C33.9157 15.4832 34.7266 15.361 34.8884 15.1974C35.0089 15.0115 34.9486 14.1869 34.9159 13.7428C34.8385 12.6909 34.7489 11.4962 35.5632 10.8506C36.3689 10.2034 37.5137 10.5528 38.5208 10.861C38.946 10.9918 39.7448 11.2363 39.9599 11.1519C40.1441 11.0331 40.4316 10.3066 40.6038 9.8711C40.9928 8.88124 41.4335 7.76054 42.4578 7.52814C43.4598 7.29401 44.2844 8.07041 45.09 8.81066C45.4257 9.12225 46.0506 9.70067 46.2865 9.71272C46.5189 9.69895 47.1438 9.12053 47.4795 8.81066C48.2834 8.06869 49.1235 7.29573 50.1082 7.52814C51.1342 7.76054 51.5766 8.88296 51.9674 9.87282C52.1379 10.3084 52.4253 11.0366 52.6182 11.1571C52.8144 11.2294 53.6218 10.9901 54.0487 10.861C55.0524 10.5511 56.1972 10.1999 57.0063 10.8489C57.8188 11.4979 57.731 12.6909 57.6536 13.7428C57.6226 14.1852 57.5606 15.0098 57.6863 15.2026C57.8429 15.361 58.6537 15.4832 59.091 15.5503C60.136 15.7087 61.3238 15.8878 61.7766 16.8277C62.2241 17.7556 61.632 18.785 61.1103 19.6957C60.8848 20.0882 60.4648 20.8181 60.5026 21.0488C60.5749 21.2502 61.2153 21.6875 61.5958 21.9457C62.4789 22.55 63.4774 23.2317 63.4774 24.2887C63.4774 25.3457 62.4789 26.0309 61.5958 26.6317C61.2153 26.8933 60.5749 27.3306 60.4992 27.5423C60.4665 27.7627 60.8848 28.4909 61.1103 28.8817C61.632 29.7906 62.2241 30.8235 61.7766 31.7514C61.3221 32.6914 60.136 32.8704 59.0893 33.0305C58.652 33.0976 57.8395 33.2199 57.6794 33.3834C57.5589 33.5676 57.6191 34.3922 57.6536 34.8363C57.7293 35.8882 57.8188 37.0829 57.0045 37.7302C56.7239 37.954 56.3969 38.0315 56.0543 38.059L60.5147 48.815C60.7368 49.3262 60.6163 49.9047 60.2255 50.2955C59.8347 50.6707 59.2546 50.7895 58.745 50.5674L55.3399 49.1042L53.9609 52.5592C53.7561 53.0705 53.2792 53.3924 52.7352 53.3924H52.718C52.174 53.3924 51.6799 53.0688 51.4751 52.5747L46.283 40.0646L41.091 52.5747C40.8861 53.0688 40.3938 53.3924 39.848 53.3924H39.8308C39.2868 53.3924 38.81 53.0688 38.6051 52.5592L37.2262 49.1042L33.8211 50.5674C33.3098 50.7895 32.7313 50.6862 32.3406 50.2955C31.9498 49.9047 31.8293 49.3245 32.0513 48.815L36.5118 38.059C36.1692 38.0315 35.8421 37.954 35.5615 37.7302C34.7489 37.0812 34.8367 35.8882 34.9125 34.8346C34.9452 34.3922 35.0055 33.5659 34.8798 33.3731C34.7266 33.2181 33.914 33.0959 33.4785 33.0288C32.4301 32.8704 31.2422 32.6914 30.7895 31.7514C30.3419 30.8235 30.9341 29.7941 31.4557 28.8834C31.6812 28.4909 32.1013 27.761 32.0634 27.5303C31.9911 27.3289 31.3524 26.8916 30.972 26.6334C30.0888 26.0309 29.0904 25.3474 29.0904 24.2887C29.0904 23.23 30.0888 22.5483 30.9702 21.9457L30.972 21.9475ZM68.2907 72.5132H24.6024C24.1324 72.5132 23.752 72.1327 23.752 71.6628C23.752 71.1928 24.1324 70.8123 24.6024 70.8123H68.2907C68.7607 70.8123 69.1412 71.1928 69.1412 71.6628C69.1412 72.1327 68.7607 72.5132 68.2907 72.5132ZM68.2907 62.9571H24.6024C24.1324 62.9571 23.752 62.5767 23.752 62.1067C23.752 61.6367 24.1324 61.2563 24.6024 61.2563H68.2907C68.7607 61.2563 69.1412 61.6367 69.1412 62.1067C69.1412 62.5767 68.7607 62.9571 68.2907 62.9571Z" fill="#45F882"/>
<path d="M31.9343 25.2303C32.7228 25.7709 33.5388 26.3269 33.7264 27.1601C33.9209 28.0157 33.4183 28.8885 32.9328 29.7355C32.6987 30.1435 32.3079 30.8218 32.3337 31.049C32.4663 31.1592 33.2891 31.2831 33.7333 31.3503C34.687 31.4949 35.6734 31.6429 36.214 32.3178C36.7563 32.9995 36.6822 33.9962 36.6117 34.962C36.5807 35.4061 36.5204 36.2325 36.6461 36.4253C36.8079 36.4683 37.5964 36.2239 38.0216 36.0948C38.6327 35.9088 39.2593 35.7177 39.8395 35.7177C40.139 35.7177 40.4265 35.7677 40.6933 35.8968C41.468 36.2686 41.8313 37.1948 42.1842 38.0883C42.3494 38.5083 42.6559 39.2899 42.859 39.4069C43.0174 39.3673 43.5889 38.8405 43.9298 38.5238C44.6511 37.8576 45.3965 37.169 46.2813 37.169C47.1662 37.169 47.9116 37.8576 48.6329 38.5238C48.9738 38.8388 49.5436 39.3673 49.7674 39.3932C49.9034 39.2899 50.2115 38.5083 50.3751 38.09C50.728 37.1965 51.0912 36.2721 51.8659 35.8985C52.6543 35.518 53.6115 35.8124 54.5394 36.0965C54.9629 36.2256 55.7599 36.4614 55.9648 36.3874C56.0405 36.2325 55.982 35.4079 55.9493 34.9637C55.877 33.998 55.8047 32.9995 56.347 32.3212C56.8875 31.6447 57.8722 31.4949 58.8277 31.3503C59.2701 31.2831 60.0947 31.1592 60.2531 30.9905C60.2531 30.8218 59.8606 30.1418 59.6282 29.7355C59.1427 28.8903 58.64 28.0175 58.8345 27.1601C59.0222 26.3287 59.8382 25.7709 60.6283 25.2303C60.9916 24.9807 61.6613 24.5262 61.7628 24.2904C61.6613 24.058 60.9933 23.6018 60.6283 23.3522C59.8382 22.8116 59.0222 22.2556 58.8345 21.4224C58.64 20.5668 59.1427 19.694 59.6282 18.847C59.8623 18.439 60.2531 17.7607 60.2272 17.5335C60.0947 17.4233 59.2718 17.2994 58.8294 17.2322C57.8757 17.0876 56.8875 16.9379 56.3487 16.2613C55.8047 15.583 55.8787 14.5846 55.9493 13.6188C55.982 13.1747 56.0423 12.3483 55.9166 12.1572C55.7548 12.1056 54.9629 12.3587 54.5411 12.4878C53.6132 12.7701 52.6561 13.0679 51.8676 12.6857C51.0929 12.3139 50.7297 11.3895 50.3785 10.4943C50.2115 10.0742 49.9051 9.29266 49.7037 9.1756C49.5436 9.21519 48.9738 9.74197 48.6329 10.0587C47.9116 10.725 47.1662 11.4136 46.2813 11.4136C45.3965 11.4136 44.6511 10.725 43.9315 10.0587C43.5889 9.74369 43.0191 9.21519 42.7953 9.18937C42.6593 9.29266 42.3511 10.0742 42.1876 10.4925C41.8347 11.386 41.4715 12.3105 40.6968 12.684C39.9066 13.0645 38.9495 12.7701 38.0233 12.486C37.6015 12.3587 36.8079 12.1228 36.5979 12.1951C36.5221 12.3501 36.5807 13.1747 36.6151 13.6171C36.6874 14.5846 36.7597 15.583 36.2157 16.263C35.6769 16.9379 34.6905 17.0876 33.735 17.2322C33.2926 17.2994 32.4697 17.4233 32.3096 17.592C32.3096 17.7607 32.7004 18.4407 32.9345 18.8487C33.42 19.694 33.9209 20.5651 33.7264 21.4224C33.5388 22.2539 32.7228 22.8116 31.9326 23.3505C31.5573 23.6087 30.8567 24.0873 30.793 24.3111C30.8584 24.4918 31.5573 24.9721 31.9343 25.2286V25.2303ZM46.2831 15.6123C51.0688 15.6123 54.9612 19.5046 54.9612 24.2904C54.9612 29.0762 51.0688 32.9702 46.2831 32.9702C41.4973 32.9702 37.605 29.0762 37.605 24.2904C37.605 19.5046 41.4973 15.6123 46.2831 15.6123Z" fill="#45F882"/>
<path d="M42.4571 41.0544C41.4311 40.822 40.9904 39.6996 40.5996 38.7115C40.4291 38.2759 40.1417 37.546 39.9471 37.4255C39.7423 37.3497 38.9435 37.5908 38.5166 37.7233C38.5131 37.7233 38.5097 37.7233 38.5079 37.7268L33.958 48.6669L36.8863 47.4068C37.0739 47.3224 37.2444 47.288 37.4303 47.288C37.6007 47.288 37.7711 47.3224 37.9416 47.3896C38.2824 47.5256 38.5372 47.7976 38.6732 48.1384L39.8645 51.1166L44.2681 40.4708C43.8102 40.8237 43.3333 41.0957 42.81 41.0957C42.6929 41.0957 42.5759 41.0837 42.4553 41.0561L42.4571 41.0544Z" fill="#45F882"/>
</g>
<defs>
<clipPath id="clip0_5_514">
<rect width="75.5413" height="80" fill="white"/>
</clipPath>
</defs>
</svg>
