<svg width="81" height="80" viewBox="0 0 81 80" fill="none" xmlns="http://www.w3.org/2000/svg">
<g clip-path="url(#clip0_5_540)">
<path d="M76.729 0H73.9083V7.37211C73.9083 7.83265 73.5355 8.20547 73.075 8.20547C72.6144 8.20547 72.2416 7.83265 72.2416 7.37211V0H66.5649V7.37211C66.5649 7.83265 66.1921 8.20547 65.7315 8.20547C65.271 8.20547 64.8982 7.83265 64.8982 7.37211V0H59.2231V7.37211C59.2231 7.83265 58.8503 8.20547 58.3898 8.20547C57.9292 8.20547 57.5564 7.83265 57.5564 7.37211V0H51.8814V7.37211C51.8814 7.83265 51.5086 8.20547 51.048 8.20547C50.5875 8.20547 50.2147 7.83265 50.2147 7.37211V0H44.538V7.37211C44.538 7.83265 44.1652 8.20547 43.7046 8.20547C43.2441 8.20547 42.8712 7.83265 42.8712 7.37211V0H37.1962V7.37211C37.1962 7.83265 36.8234 8.20547 36.3629 8.20547C35.9023 8.20547 35.5295 7.83265 35.5295 7.37211V0H29.8528V7.37211C29.8528 7.83265 29.48 8.20547 29.0194 8.20547C28.5589 8.20547 28.1861 7.83265 28.1861 7.37211V0H22.5111V7.37211C22.5111 7.83265 22.1383 8.20547 21.6777 8.20547C21.2172 8.20547 20.8443 7.83265 20.8443 7.37211V0H15.1676V7.37211C15.1676 7.83265 14.7948 8.20547 14.3343 8.20547C13.8737 8.20547 13.5009 7.83265 13.5009 7.37211V0H7.8259V7.37211C7.8259 7.83265 7.45308 8.20547 6.99254 8.20547C6.53199 8.20547 6.15917 7.83265 6.15917 7.37211V0H3.36721C1.50141 0 0 1.50141 0 3.35203V11.458C0 13.3103 1.50141 14.81 3.35203 14.81H29.6892C30.2729 14.81 30.8397 15.1103 31.1737 15.5944L33.6097 19.1978C35.3608 17.914 37.4965 17.1633 39.8144 17.1633C42.2656 17.1633 44.5177 17.9967 46.3194 19.3986L48.8887 15.5961C49.2227 15.112 49.7727 14.8117 50.3732 14.8117H76.7273C78.5627 14.8117 80.0641 13.3103 80.0641 11.4597V3.35203C80.0641 1.49973 78.5627 0 76.7273 0H76.729Z" fill="#45F882"/>
<path d="M39.8179 34.8952C31.8081 34.8952 25.293 41.4103 25.293 49.4201C25.293 57.4299 31.8081 63.945 39.8179 63.945C47.8277 63.945 54.3428 57.4299 54.3428 49.4201C54.3428 41.4103 47.8277 34.8952 39.8179 34.8952ZM47.9947 48.2105L44.5161 51.6031L45.3394 56.3941C45.3933 56.7079 45.2651 57.025 45.007 57.2106C44.8619 57.3169 44.6899 57.3708 44.5161 57.3708C44.3828 57.3708 44.2513 57.3405 44.1281 57.2747L39.8246 55.0124L35.5211 57.2747C35.2411 57.4248 34.8986 57.3995 34.6439 57.2106C34.3858 57.025 34.2576 56.7096 34.3116 56.3941L35.1348 51.6031L31.6563 48.2105C31.4285 47.9895 31.3475 47.6572 31.4437 47.3552C31.5415 47.0516 31.8013 46.8323 32.1168 46.7867L36.9264 46.0883L39.079 41.7292C39.359 41.1623 40.2936 41.1623 40.5736 41.7292L42.7262 46.0883L47.5358 46.7867C47.8496 46.8323 48.1111 47.0516 48.2089 47.3552C48.3068 47.6572 48.2258 47.9895 47.9964 48.2105H47.9947Z" fill="#45F882"/>
<path d="M70.3978 49.4201C70.3978 44.5026 66.4233 40.528 61.5057 40.528H61.2763C61.3219 40.5044 61.391 40.4352 61.4366 40.3897C64.9286 36.9196 64.9286 31.2682 61.4366 27.7998C57.9681 24.3313 52.3387 24.3313 48.8466 27.7998C48.8011 27.8453 48.7539 27.8925 48.7319 27.9381V27.7542C48.7319 22.8147 44.7338 18.8402 39.8179 18.8402C34.9021 18.8402 30.9258 22.8147 30.9258 27.7542V27.9617C30.8803 27.8925 30.8347 27.847 30.7875 27.8015C27.2955 24.333 21.666 24.333 18.1976 27.8015C14.7055 31.2716 14.7055 36.923 18.1976 40.3914C18.2431 40.4369 18.3123 40.5061 18.3578 40.5297H18.1284C13.2109 40.5297 9.23633 44.5042 9.23633 49.4218C9.23633 54.3393 13.2109 58.3358 18.1284 58.3358H18.3578C18.3123 58.3594 18.2431 58.4269 18.1976 58.4741C14.7055 61.9443 14.7055 67.572 18.1976 71.0641C21.6677 74.5342 27.2955 74.5342 30.7875 71.0641C30.8331 71.0185 30.8786 70.973 30.9258 70.9038V71.1113C30.9258 76.0289 34.9004 80.0034 39.8179 80.0034C44.7355 80.0034 48.7319 76.0289 48.7319 71.1113V70.9274C48.7555 70.973 48.8011 71.0185 48.8466 71.0658C52.3387 74.5359 57.9681 74.5359 61.4366 71.0658C64.9286 67.5737 64.9286 61.9443 61.4366 58.4758C61.391 58.4303 61.3219 58.3611 61.2763 58.3375H61.5057C66.4216 58.3375 70.3978 54.3393 70.3978 49.4235V49.4201ZM39.8179 65.6134C30.8904 65.6134 23.6246 58.3493 23.6246 49.4201C23.6246 40.4909 30.8887 33.2268 39.8179 33.2268C48.7471 33.2268 56.0112 40.4909 56.0112 49.4201C56.0112 58.3493 48.7471 65.6134 39.8179 65.6134Z" fill="#45F882"/>
<path d="M41.4221 47.2203L39.8245 43.983L38.227 47.2203C38.1072 47.4666 37.871 47.6353 37.5994 47.6758L34.0264 48.1937L36.6091 50.714C36.8065 50.9063 36.8959 51.1813 36.8504 51.4529L36.2397 55.0108L39.4348 53.3305C39.5546 53.2664 39.6896 53.2344 39.8228 53.2344C39.9561 53.2344 40.0894 53.2664 40.2108 53.3305L43.406 55.0108L42.7953 51.4529C42.7497 51.1813 42.8392 50.9063 43.0365 50.714L45.6193 48.1937L42.0463 47.6758C41.7764 47.6353 41.5402 47.4649 41.4187 47.2203H41.4221Z" fill="#45F882"/>
</g>
<defs>
<clipPath id="clip0_5_540">
<rect width="80.0641" height="80" fill="white"/>
</clipPath>
</defs>
</svg>
