<svg width="73" height="80" viewBox="0 0 73 80" fill="none" xmlns="http://www.w3.org/2000/svg">
<path d="M45.566 66.2705C45.466 66.2027 45.349 66.1366 45.2473 66.0518C44.174 65.1803 44.2079 63.8391 44.291 62.698C44.2079 63.0168 44.174 63.3525 44.174 63.7035C44.174 64.1731 43.8061 64.5411 43.3364 64.5411H11.8349C11.3652 64.5411 10.9973 64.1714 10.9973 63.7035C10.9973 61.3399 9.06947 59.412 6.70588 59.412C6.23622 59.412 5.86829 59.0424 5.86829 58.5744V11.8368C5.86829 11.3671 6.23791 10.9992 6.70588 10.9992C9.06947 10.9992 10.9973 9.07137 10.9973 6.70778C10.9973 6.23812 11.3652 5.87018 11.8349 5.87018H43.3364C43.8061 5.87018 44.174 6.23981 44.174 6.70778C44.174 9.07137 46.1018 10.9992 48.4654 10.9992C48.9351 10.9992 49.303 11.3688 49.303 11.8368V38.2415C49.42 38.2924 49.5539 38.3246 49.6726 38.3415C49.7727 38.1398 49.8744 37.8549 49.9575 37.6548C50.3763 36.5985 50.9291 35.1573 52.372 34.8385L52.5567 34.7877L52.9094 34.7707C53.8149 34.7707 54.5355 35.2573 55.173 35.8101V3.55407C55.173 1.59233 53.5809 0.000213623 51.6191 0.000213623H3.55385C1.59211 0.000213623 0 1.59233 0 3.55407V66.8572C0 68.8189 1.59211 70.411 3.55385 70.411H43.8569L45.5677 66.2705H45.566Z" fill="#45F882"/>
<path d="M45.2487 38.2737C45.7014 37.9058 46.2542 37.7209 46.9087 37.7209C47.1427 37.7209 47.3953 37.7549 47.6293 37.7888V12.6066C45.0148 12.2386 42.936 10.1582 42.5664 7.54367H12.6248C12.2399 10.1582 10.1611 12.2386 7.54492 12.6066V57.8047C10.1611 58.1743 12.2399 60.253 12.6248 62.8676H42.5664C42.6325 62.3809 42.7512 61.9282 42.9343 61.4925C41.9119 61.3077 40.8386 60.9567 40.3198 59.8664C39.6823 58.5592 40.4198 57.2841 41.0065 56.2617C41.1065 56.0769 41.2744 55.809 41.3761 55.5903C41.1913 55.4394 40.9573 55.2885 40.7725 55.1545C39.8501 54.517 38.5598 53.6455 38.5598 52.1534C38.5598 50.6613 39.8501 49.8068 40.7725 49.1523C40.9573 49.0353 41.1913 48.8675 41.3761 48.7335C41.2761 48.5148 41.1082 48.2469 41.0065 48.0468C40.4198 47.0244 39.6823 45.7493 40.3198 44.4421C40.9573 43.1179 42.4155 42.8991 43.6058 42.716C43.8075 42.6821 44.1093 42.6482 44.3433 42.599C44.3433 42.3481 44.3264 42.0463 44.3094 41.8276C44.2094 40.6542 44.1076 39.1791 45.2487 38.2737ZM20.955 12.5743H34.2158C34.6685 12.5743 35.0534 12.9423 35.0534 13.4119C35.0534 13.8816 34.6685 14.2495 34.2158 14.2495H20.955C20.5023 14.2495 20.1174 13.8799 20.1174 13.4119C20.1174 12.944 20.5023 12.5743 20.955 12.5743ZM25.3142 57.8386H15.0884C14.6357 57.8386 14.2508 57.4689 14.2508 57.001C14.2508 56.533 14.6357 56.1634 15.0884 56.1634H25.3142C25.7839 56.1634 26.1518 56.5313 26.1518 57.001C26.1518 57.4706 25.7839 57.8386 25.3142 57.8386ZM31.6182 49.1218H14.9375C14.4678 49.1218 14.0999 48.7522 14.0999 48.2842C14.0999 47.8162 14.4695 47.4466 14.9375 47.4466H31.6182C32.0879 47.4466 32.4559 47.8145 32.4559 48.2842C32.4559 48.7538 32.0879 49.1218 31.6182 49.1218ZM40.235 40.4033H14.9375C14.4678 40.4033 14.0999 40.0337 14.0999 39.5657C14.0999 39.0977 14.4695 38.7281 14.9375 38.7281H40.235C40.7047 38.7281 41.0726 39.0977 41.0726 39.5657C41.0726 40.0337 40.7047 40.4033 40.235 40.4033ZM40.235 31.6848H14.9375C14.4678 31.6848 14.0999 31.3169 14.0999 30.8472C14.0999 30.3776 14.4695 30.0096 14.9375 30.0096H40.235C40.7047 30.0096 41.0726 30.3792 41.0726 30.8472C41.0726 31.3152 40.7047 31.6848 40.235 31.6848ZM40.235 22.968H14.9375C14.4678 22.968 14.0999 22.5984 14.0999 22.1304C14.0999 21.6625 14.4695 21.2928 14.9375 21.2928H40.235C40.7047 21.2928 41.0726 21.6608 41.0726 22.1304C41.0726 22.6001 40.7047 22.968 40.235 22.968Z" fill="#45F882"/>
<path d="M52.7249 69.5412L52.3723 69.4904C50.931 69.1546 50.3766 67.7134 49.9578 66.6741C49.8747 66.457 49.773 66.1874 49.6729 65.9874C49.4389 66.0382 49.1541 66.1213 48.9354 66.1891C48.3996 66.357 47.8299 66.5249 47.2754 66.574L43.0841 76.6489C42.9162 77.0508 43.3181 77.4543 43.7216 77.2695L47.4094 75.6944C47.6603 75.5774 47.9621 75.7113 48.0639 75.9622L49.539 79.684C49.7069 80.1028 50.2765 80.1028 50.4444 79.7009L55.0376 68.6358C54.434 69.1224 53.7304 69.5412 52.908 69.5412H52.7232H52.7249Z" fill="#45F882"/>
<path d="M65.3986 66.5893C64.8289 66.5384 64.2745 66.3553 63.7387 66.1874C63.52 66.1196 63.2182 66.0365 62.9842 65.9857C62.9011 66.1874 62.7824 66.4553 62.6993 66.6723C62.2975 67.7287 61.7278 69.1529 60.2849 69.4886L60.1001 69.5226L59.7643 69.5395C58.9267 69.5395 58.2384 69.1377 57.6348 68.6341L62.211 79.6992C62.3789 80.101 62.9486 80.1011 63.1164 79.6823L64.6085 75.9605C64.7086 75.7096 64.9934 75.5756 65.246 75.6926L68.9338 77.2678C69.3357 77.4526 69.7392 77.0491 69.5714 76.6472L65.397 66.5876L65.3986 66.5893Z" fill="#45F882"/>
<path d="M56.333 45.2899C52.5451 45.2899 49.4609 48.3724 49.4609 52.1619C49.4609 55.9515 52.5434 59.034 56.333 59.034C60.1225 59.034 63.2067 55.9515 63.2067 52.1619C63.2067 48.3724 60.1242 45.2899 56.333 45.2899Z" fill="#45F882"/>
<path d="M72.427 52.1619C72.427 51.0293 69.7581 50.212 69.5157 49.1523C69.2664 48.0587 71.3113 46.1648 70.8348 45.178C70.3516 44.1742 67.5913 44.5964 66.9029 43.735C66.2111 42.8686 67.2335 40.2727 66.3671 39.581C65.5057 38.8926 63.2015 40.4643 62.1977 39.9794C61.2109 39.503 61.0075 36.7189 59.9121 36.4696C58.8524 36.2289 57.4638 38.6433 56.3311 38.6433C55.1985 38.6433 53.8099 36.2289 52.7502 36.4696C51.6565 36.7189 51.4531 39.503 50.4646 39.9794C49.4608 40.4643 47.1583 38.8926 46.2952 39.581C45.4288 40.2727 46.4512 42.8686 45.7594 43.735C45.0711 44.5964 42.3124 44.1759 41.8275 45.178C41.351 46.1648 43.3958 48.0587 43.1466 49.1523C42.9058 50.212 40.2354 51.031 40.2354 52.1636C40.2354 53.2962 42.9041 54.1135 43.1466 55.1749C43.3958 56.2685 41.351 58.1624 41.8275 59.1492C42.3124 60.153 45.0711 59.7308 45.7594 60.5921C46.4512 61.4586 45.4288 64.0544 46.2952 64.7462C47.1566 65.4346 49.4608 63.8628 50.4646 64.3478C51.4514 64.8242 51.6548 67.6083 52.7502 67.8575C53.8099 68.0983 55.1985 65.6839 56.3311 65.6839C57.4638 65.6839 58.8524 68.0983 59.9121 67.8575C61.0058 67.6083 61.2092 64.8242 62.1977 64.3478C63.2015 63.8628 65.5041 65.4346 66.3671 64.7462C67.2335 64.0544 66.2111 61.4586 66.9029 60.5921C67.5913 59.7308 70.3499 60.1513 70.8348 59.1492C71.3113 58.1624 69.2664 56.2685 69.5157 55.1749C69.7564 54.1152 72.427 53.2962 72.427 52.1636V52.1619ZM56.3328 60.7108C51.6192 60.7108 47.7856 56.8772 47.7856 52.1636C47.7856 47.45 51.6192 43.6147 56.3328 43.6147C61.0464 43.6147 64.8818 47.45 64.8818 52.1636C64.8818 56.8772 61.0464 60.7108 56.3328 60.7108Z" fill="#45F882"/>
</svg>
