<svg width="82" height="80" viewBox="0 0 82 80" fill="none" xmlns="http://www.w3.org/2000/svg">
<path d="M35.6371 34.2698L39.4147 27.8818H30.5713L35.6371 34.2698Z" fill="#45F882"/>
<path d="M33.9984 34.9096L29.0246 28.6374L24.2021 34.9096H33.9984Z" fill="#45F882"/>
<path d="M49.0576 34.9096H57.5811L52.7638 28.6442L49.0576 34.9096Z" fill="#45F882"/>
<path d="M36.7295 36.5925L40.8883 53.1204L45.0522 36.5925H36.7295Z" fill="#45F882"/>
<path d="M40.8989 28.6782L37.2148 34.9096H45.7366C45.7621 34.8943 45.7928 34.8926 45.8183 34.8806L40.8989 28.6782Z" fill="#45F882"/>
<path d="M42.4131 27.8818L47.4806 34.2698L51.2582 27.8818H42.4131Z" fill="#45F882"/>
<path d="M46.7862 36.5925L42.3262 54.3014L57.2903 36.5925H46.7862Z" fill="#45F882"/>
<path d="M40.9755 15.351C27.3863 15.351 16.3291 26.4065 16.3291 39.9992C16.3291 53.5918 27.3846 64.6473 40.9755 64.6473C54.5665 64.6473 65.6237 53.5918 65.6237 39.9992C65.6237 26.4065 54.5682 15.351 40.9755 15.351ZM59.1387 37.0145L42.5649 56.6258C42.1548 57.1108 41.5609 57.3881 40.9279 57.4001C40.916 57.4001 40.9041 57.4069 40.8922 57.4069C40.8853 57.4069 40.8802 57.4035 40.8734 57.4035C40.2319 57.4001 39.6261 57.1193 39.2092 56.6275L22.649 37.0145C22.4192 36.7439 22.295 36.424 22.2184 36.0922C22.1708 35.9867 22.1436 35.8727 22.1436 35.7502C22.1436 35.7417 22.1487 35.7332 22.1487 35.7247C22.118 35.2091 22.2559 34.685 22.586 34.2579L28.1197 27.0582C28.2354 26.9068 28.375 26.7758 28.5264 26.6618C28.5281 26.6618 28.5281 26.6584 28.5315 26.6567C28.5366 26.6516 28.5451 26.6516 28.5502 26.6464C28.9263 26.3657 29.3857 26.1989 29.8622 26.1989H51.9289C52.1076 26.1989 52.2829 26.2227 52.4513 26.2636C52.6811 26.1785 52.9414 26.1836 53.1677 26.3163C53.4026 26.4559 53.5302 26.6924 53.5608 26.9442C53.5965 26.9851 53.6391 27.0157 53.6714 27.0599L59.2051 34.2596C59.8296 35.0729 59.8024 36.2334 59.1422 37.0162L59.1387 37.0145Z" fill="#45F882"/>
<path d="M34.9927 36.5925H24.4902L39.4544 54.3133L34.9927 36.5925Z" fill="#45F882"/>
<path d="M81.9523 39.9992C81.9523 37.1149 75.156 35.0321 74.5417 32.335C73.9087 29.5494 79.114 24.7304 77.9007 22.2154C76.6687 19.6595 69.6427 20.735 67.89 18.5399C66.1288 16.3346 68.7323 9.72542 66.527 7.96423C64.3319 6.21155 58.4681 10.2121 55.9122 8.97841C53.3989 7.76514 52.8799 0.676144 50.0943 0.0431366C47.3955 -0.571153 43.8596 5.57854 40.9753 5.57854C38.091 5.57854 34.5567 -0.571153 31.858 0.0431366C29.0724 0.676144 28.5534 7.76685 26.0401 8.97841C23.4859 10.2104 17.6221 6.20985 15.427 7.96253C13.2217 9.72372 15.8235 16.3329 14.0623 18.5382C12.3096 20.7333 5.28357 19.6578 4.05159 22.2137C2.83832 24.727 8.04361 29.5477 7.4106 32.3333C6.79632 35.0321 0 37.1149 0 39.9992C0 42.8834 6.79632 44.9662 7.4106 47.6633C8.04361 50.4489 2.83832 55.2679 4.04988 57.7829C5.28186 60.3371 12.3079 59.2633 14.0606 61.4584C15.8218 63.6637 13.2183 70.2729 15.4236 72.0341C17.6187 73.7868 23.4825 69.7862 26.0384 71.0199C28.5517 72.2332 29.0707 79.3222 31.8563 79.9569C34.555 80.5712 38.091 74.4215 40.9753 74.4215C43.8596 74.4215 47.3938 80.5712 50.0926 79.9569C52.8782 79.3239 53.3972 72.2332 55.9105 71.0216C58.4647 69.7896 64.3285 73.7902 66.5236 72.0375C68.7289 70.2763 66.1271 63.6672 67.8883 61.4618C69.641 59.2667 76.667 60.3422 77.899 57.7863C79.1123 55.273 73.907 50.4523 74.54 47.6667C75.1543 44.9679 81.9506 42.8851 81.9506 40.0009L81.9523 39.9992ZM40.9753 66.3285C26.457 66.3285 14.6476 54.5158 14.6476 39.9992C14.6476 25.4825 26.4587 13.6698 40.9753 13.6698C55.4919 13.6698 67.3046 25.4825 67.3046 39.9992C67.3046 54.5158 55.4919 66.3285 40.9753 66.3285Z" fill="#45F882"/>
</svg>
