<svg width="80" height="80" viewBox="0 0 80 80" fill="none" xmlns="http://www.w3.org/2000/svg">
<path d="M8.92451 70.6538V67.2541H1.10882C0.191903 67.2541 -0.323861 68.3041 0.225614 69.0373L2.9258 72.6039C3.24267 73.0033 3.22582 73.5697 2.9258 73.9708L0.30989 77.2542C-0.273295 77.9874 0.242472 79.0543 1.17624 79.0543H12.0596C12.6764 79.0543 13.1754 78.5537 13.1754 77.9537V74.9535C10.8258 74.9197 8.92619 73.0202 8.92619 70.6538H8.92451Z" fill="#45F882"/>
<path d="M76.4034 74.9029C76.0865 74.5034 76.0697 73.9523 76.3866 73.536L79.0867 69.9694C79.6362 69.2362 79.1204 68.1862 78.2035 68.1862H70.3878V70.6521C70.3878 73.0185 68.4883 74.9181 66.1387 74.9518V78.8841C66.1387 79.501 66.6393 79.9999 67.2545 79.9999H78.1378C79.0716 79.9999 79.5873 78.9161 79.0041 78.1829L76.4051 74.8995L76.4034 74.9029Z" fill="#45F882"/>
<path d="M13.2342 61.2115H66.0782C67.5345 61.2115 68.7177 62.3948 68.7177 63.851V70.6554C68.7177 72.1117 67.5345 73.2949 66.0782 73.2949H13.2342C11.7779 73.2949 10.5947 72.1134 10.5947 70.6554V63.851C10.5947 62.3948 11.7763 61.2132 13.2325 61.2132L13.2342 61.2115Z" fill="#45F882"/>
<path d="M59.4642 20.2319C59.4642 19.9504 59.3125 19.6874 59.0681 19.5475L40.0489 8.56479C39.9275 8.494 39.7893 8.46027 39.6528 8.46027C39.5163 8.46027 39.3814 8.494 39.2584 8.56479L20.2391 19.5458C19.9964 19.6874 19.8447 19.9487 19.8447 20.2319V48.8585C19.8447 49.14 19.9964 49.4012 20.2391 49.5445L39.2584 60.5255C39.5011 60.6637 39.8028 60.6671 40.0472 60.5255L59.0664 49.5445C59.3108 49.4029 59.4625 49.1416 59.4625 48.8585V20.2319H59.4642ZM45.3549 50.099H35.2789C33.4518 50.099 31.9652 48.6124 31.9652 46.7853C31.9652 44.9582 33.4518 43.4733 35.2789 43.4733H36.9998V30.3044L36.3003 31.0073C35.0075 32.3001 32.9057 32.3017 31.6163 31.0073C30.3252 29.7061 30.3269 27.6026 31.6163 26.3148L37.9723 19.9588C38.9263 19.0031 40.3472 18.72 41.5877 19.2425C42.8249 19.7481 43.6272 20.9499 43.6272 22.2983V43.4682H45.3565C47.1819 43.4682 48.6686 44.9548 48.6686 46.7803C48.6686 48.6057 47.1819 50.0939 45.3565 50.0939L45.3549 50.099Z" fill="#45F882"/>
<path d="M45.3545 45.1403H42.7909C42.3307 45.1403 41.9582 44.7678 41.9582 44.3076V22.3033C41.9582 21.6325 41.5605 21.0375 40.9469 20.7864C40.33 20.5251 39.6221 20.6667 39.1485 21.142L32.7925 27.4981C32.152 28.1386 32.152 29.187 32.7958 29.8359C33.4346 30.4781 34.478 30.4747 35.1184 29.8359L37.2405 27.7037C37.4781 27.4627 37.8372 27.3953 38.149 27.5217C38.4608 27.6498 38.6647 27.9549 38.6647 28.292V44.311C38.6647 44.7711 38.2923 45.1436 37.8321 45.1436H35.2786C34.3701 45.1436 33.6318 45.8819 33.6318 46.7887C33.6318 47.6955 34.3701 48.4354 35.2786 48.4354H45.3545C46.2613 48.4354 46.9996 47.6972 46.9996 46.7887C46.9996 45.8802 46.2613 45.1436 45.3545 45.1436V45.1403Z" fill="#45F882"/>
<path d="M14.3398 55.2044L21.8555 59.5378H34.2052L19.4065 50.989C18.6564 50.5558 18.1727 49.7383 18.1727 48.8551V20.2234C18.1727 19.3571 18.6564 18.5396 19.4065 18.1064L38.4223 7.12368C39.1892 6.6905 40.123 6.6905 40.8882 7.12368L59.9041 18.1064C60.6542 18.5396 61.1379 19.3571 61.1379 20.2234V48.8551C61.1379 49.7383 60.6542 50.5541 59.9041 50.989L45.1054 59.5378H57.4551L64.9708 55.2044C66.4203 54.3549 67.3035 52.8042 67.3035 51.1373V17.9564C67.3035 16.2726 66.4203 14.7236 64.9708 13.8893L42.0057 0.624358C40.5562 -0.208282 38.7561 -0.208282 37.3065 0.624358L14.3415 13.8893C12.892 14.7219 12.0088 16.2726 12.0088 17.9564V51.1373C12.0088 52.8042 12.892 54.3532 14.3415 55.2044H14.3398Z" fill="#45F882"/>
</svg>
