<svg width="65" height="80" viewBox="0 0 65 80" fill="none" xmlns="http://www.w3.org/2000/svg">
<path d="M46.8297 59.2192C47.4786 59.2192 48.0921 59.3015 48.6906 59.4847L54.3086 16.5682C54.5254 14.6064 52.646 13.0935 50.7851 13.7255L46.5641 15.188L40.3477 59.2175H46.8297V59.2192Z" fill="#45F882"/>
<path d="M17.777 59.2192H38.6704L45.1525 13.2952C45.3525 11.8663 44.5204 10.503 43.1739 10.0374L14.4687 0.16471C12.391 -0.549726 10.2796 1.16156 10.5301 3.33849L16.9465 59.2696C17.2121 59.236 17.4945 59.2192 17.777 59.2192Z" fill="#45F882"/>
<path d="M17.7766 60.8817C14.9172 60.8817 12.6074 63.2082 12.6074 66.0677V68.3606H52.0157V66.0677C52.0157 63.2082 49.6892 60.8817 46.8297 60.8817H17.7766Z" fill="#45F882"/>
<path d="M63.7849 78.3391H59.9403V75.2057C59.9403 72.3463 57.6222 70.0281 54.7628 70.0281H9.85081C6.99138 70.0281 4.67326 72.3463 4.67326 75.2057V78.3391H0.830437C0.371517 78.3391 0 78.7106 0 79.1696C0 79.6285 0.371517 80 0.830437 80H63.7832C64.2421 80 64.6136 79.6285 64.6136 79.1696C64.6136 78.7106 64.2421 78.3391 63.7832 78.3391H63.7849Z" fill="#45F882"/>
</svg>
