<svg width="115" height="80" viewBox="0 0 115 80" fill="none" xmlns="http://www.w3.org/2000/svg">
<path d="M0.365841 28.9771L8.86616 39.0101C9.34977 39.5803 9.34977 40.4151 8.86616 40.9854L0.365841 51.0207C-0.473845 52.0144 0.231106 53.535 1.53034 53.535H19.1758V26.4629H1.53034C0.228701 26.4629 -0.476251 27.9859 0.365841 28.9771Z" fill="#45F882"/>
<path d="M105.324 40.9854C104.841 40.4151 104.841 39.5803 105.324 39.0101L113.825 28.9771C114.664 27.9835 113.959 26.4629 112.66 26.4629H95.0146V53.535H112.66C113.962 53.535 114.667 52.012 113.825 51.0207L105.324 40.9878V40.9854Z" fill="#45F882"/>
<path d="M61.5207 34.2149L57.0937 25.243L52.6667 34.2149C52.4959 34.5662 52.1591 34.8068 51.7717 34.8646L41.8711 36.3033L49.0361 43.2855C49.3176 43.5598 49.4451 43.9519 49.3802 44.3393L47.6863 54.199L56.5428 49.5434C56.7136 49.452 56.9061 49.4063 57.0961 49.4063C57.2862 49.4063 57.4763 49.452 57.6495 49.5434L66.5059 54.199L64.8145 44.3393C64.7495 43.9519 64.8771 43.5598 65.1586 43.2855L72.3236 36.3033L62.4206 34.8646C62.0356 34.8068 61.6988 34.5638 61.5255 34.2149H61.5207Z" fill="#45F882"/>
<path d="M81.8657 25.0482L57.6591 11.0694C57.4859 10.9684 57.2886 10.9203 57.0937 10.9203C56.8989 10.9203 56.704 10.9684 56.5283 11.0718L32.3218 25.0458C31.9753 25.2479 31.7588 25.6208 31.7588 26.025V53.9777C31.7588 54.3795 31.9753 54.7548 32.3218 54.9569L56.5283 68.9332C56.8772 69.1329 57.3079 69.1353 57.6567 68.9332L81.8633 54.9593C82.2122 54.7572 82.4287 54.3843 82.4287 53.9801V26.0274C82.4287 25.6256 82.2122 25.2503 81.8633 25.0506L81.8657 25.0482ZM75.704 36.325L67.2614 44.5534L69.2536 56.1719C69.3306 56.6194 69.1477 57.0717 68.7796 57.3364C68.5727 57.488 68.3273 57.565 68.0794 57.565C67.8894 57.565 67.7017 57.5217 67.5261 57.4278L57.0913 51.9398L46.6566 57.4278C46.2596 57.642 45.7712 57.6059 45.4055 57.3364C45.0374 57.0717 44.8545 56.6194 44.9315 56.1719L46.9261 44.5534L38.4835 36.325C38.1587 36.0098 38.0432 35.5358 38.1803 35.1052C38.3199 34.6721 38.6928 34.3593 39.1403 34.2943L50.8069 32.6005L56.0255 22.0287C56.4249 21.2203 57.7578 21.2203 58.1572 22.0287L63.3758 32.6005L75.0448 34.2943C75.4899 34.3593 75.8652 34.6721 76.0047 35.1052C76.1443 35.5358 76.0288 36.0098 75.7016 36.325H75.704Z" fill="#45F882"/>
<path d="M89.284 17.5487L60.4411 0.896951C58.3695 -0.298821 55.8168 -0.298821 53.7453 0.896951L24.9024 17.5487C22.8308 18.7445 21.5557 20.9556 21.5557 23.3471V56.6531C21.5557 59.0446 22.8308 61.2557 24.9024 62.4515L53.7453 79.1033C55.8168 80.2991 58.3695 80.2991 60.4411 79.1033L89.284 62.4515C91.3555 61.2557 92.6307 59.0446 92.6307 56.6531V23.3471C92.6307 20.9556 91.3555 18.7445 89.284 17.5487ZM84.8088 53.9753C84.8088 55.224 84.1376 56.3884 83.0549 57.014L58.8483 70.9879C58.307 71.3007 57.7007 71.4571 57.0944 71.4571C56.4881 71.4571 55.8818 71.3007 55.3404 70.9903L31.1339 57.0116C30.0536 56.3884 29.3823 55.224 29.3823 53.9753V26.0226C29.3823 24.7739 30.0536 23.6094 31.1339 22.9862L55.3404 9.00991C56.4231 8.38195 57.7656 8.38436 58.8483 9.00991L83.0549 22.9887C84.1376 23.6118 84.8088 24.7763 84.8088 26.025V53.9777V53.9753Z" fill="#45F882"/>
</svg>
