<svg width="219" height="34" viewBox="0 0 219 34" fill="none" xmlns="http://www.w3.org/2000/svg">
<path d="M218.046 0.78726V4.42833C218.046 4.92037 217.8 5.16639 217.259 5.16639H196.052C195.757 5.16639 195.511 5.26479 195.314 5.46161L192.903 7.77418C192.756 7.92179 192.657 8.16781 192.657 8.46303V24.7494C192.657 25.0447 192.706 25.3399 192.903 25.4875L196.151 28.5381C196.397 28.7349 196.643 28.8334 196.987 28.8334H217.259C217.8 28.8334 218.046 29.0794 218.046 29.6206V33.2125C218.046 33.7537 217.8 33.9997 217.259 33.9997H191.575C191.083 33.9997 190.64 33.8029 190.296 33.4585L183.751 27.308C183.456 27.0128 183.309 26.6684 183.309 26.2256V6.19966C183.309 5.75683 183.456 5.4124 183.751 5.11718L188.524 0.541242C188.869 0.196815 189.311 0 189.803 0H217.259C217.8 0 218.046 0.246018 218.046 0.78726Z" fill="white"/>
<path d="M174.807 0.590445L179.531 5.11718C179.826 5.4124 179.973 5.75683 179.973 6.19966V13.9246C179.973 14.4167 179.826 14.7611 179.531 15.0071L173.331 20.9608C172.79 21.502 172.15 21.748 171.412 21.748H149.467V33.2125C149.467 33.7537 149.221 33.9997 148.68 33.9997H140.955C140.463 33.9997 140.217 33.7537 140.217 33.2125V1.42691C140.217 0.492036 140.66 0 141.594 0H173.331C173.921 0 174.413 0.196815 174.807 0.590445ZM170.28 7.57737L168.115 5.51081C167.869 5.26479 167.574 5.16639 167.23 5.16639H150.304C149.762 5.16639 149.467 5.46161 149.467 6.00285V16.7292H166.246C166.738 16.7292 167.18 16.5324 167.525 16.188L170.28 13.531C170.575 13.2358 170.723 12.8914 170.723 12.4485V8.56144C170.723 8.21701 170.575 7.87259 170.28 7.57737Z" fill="white"/>
<path d="M135.386 11.5138V16.9262C135.386 17.4675 135.091 17.7135 134.599 17.7135H128.891C128.449 17.7135 128.153 17.4675 128.153 16.9262V11.5138C128.153 11.0218 128.449 10.7266 128.891 10.7266H134.599C135.091 10.7266 135.386 11.0218 135.386 11.5138ZM135.386 27.8002V33.2126C135.386 33.7539 135.091 33.9999 134.599 33.9999H128.891C128.449 33.9999 128.153 33.7539 128.153 33.2126V27.8002C128.153 27.3082 128.449 27.013 128.891 27.013H134.599C135.091 27.013 135.386 27.3082 135.386 27.8002Z" fill="white"/>
<path d="M117.223 0.688851L123.127 6.49489C123.423 6.7409 123.57 7.08533 123.57 7.52816V24.7002C123.57 25.2907 123.521 25.4383 123.127 25.8319L115.255 33.3109C114.861 33.7537 114.271 33.9997 113.483 33.9997H84.8468C83.912 33.9997 83.4199 33.5077 83.4199 32.5236V1.42691C83.4199 0.492036 83.912 0 84.8468 0H115.255C116.091 0 116.731 0.246018 117.223 0.688851ZM113.877 8.36462L111.072 5.60922C110.777 5.314 110.384 5.16639 109.941 5.16639H93.4575C93.0146 5.16639 92.7686 5.4124 92.7686 5.85524V27.9969C92.7686 28.5381 93.0146 28.8334 93.5559 28.8334H108.957C109.399 28.8334 109.793 28.6857 110.039 28.4397L113.828 24.8479C114.074 24.6018 114.221 24.2574 114.221 23.913V9.20109C114.221 8.85666 114.123 8.61064 113.877 8.36462Z" fill="white"/>
<path d="M73.4586 0.442833L78.2313 5.01877C78.5757 5.3632 78.7726 5.80603 78.7726 6.34727V27.6525C78.7726 28.1937 78.5757 28.6365 78.2313 28.981L73.4586 33.5569C73.1633 33.8521 72.7697 33.9997 72.2777 33.9997H45.4617C44.9696 33.9997 44.576 33.8521 44.2808 33.5569L39.508 28.981C39.1636 28.6365 38.9668 28.1937 38.9668 27.6525V6.34727C38.9668 5.80603 39.1636 5.3632 39.508 5.01877L44.2808 0.442833C44.576 0.147612 44.9696 0 45.4617 0H72.2777C72.7697 0 73.1633 0.147612 73.4586 0.442833ZM69.1778 7.72498L66.9637 5.56002C66.7177 5.314 66.3732 5.16639 66.0288 5.16639H51.7105C51.3661 5.16639 51.0217 5.314 50.7757 5.56002L48.5615 7.72498C48.3155 7.97099 48.2171 8.26622 48.2171 8.61064V25.3891C48.2171 25.7335 48.3155 26.0287 48.5615 26.2748L50.7757 28.4397C51.0217 28.6857 51.3661 28.8334 51.7105 28.8334H66.0288C66.3732 28.8334 66.7177 28.6857 66.9637 28.4397L69.1778 26.2748C69.4239 26.0287 69.5223 25.7335 69.5223 25.3891V8.61064C69.5223 8.26622 69.4239 7.97099 69.1778 7.72498Z" fill="white"/>
<path d="M34.7339 0.78726V4.42833C34.7339 4.92037 34.4879 5.16639 33.9466 5.16639H12.7398C12.4446 5.16639 12.1986 5.26479 12.0018 5.46161L9.59081 7.77418C9.4432 7.92179 9.34479 8.16781 9.34479 8.46303V24.7494C9.34479 25.0447 9.39399 25.3399 9.59081 25.4875L12.8383 28.5381C13.0843 28.7349 13.3303 28.8334 13.6747 28.8334H33.9466C34.4879 28.8334 34.7339 29.0794 34.7339 29.6206V33.2125C34.7339 33.7537 34.4879 33.9997 33.9466 33.9997H8.26231C7.77027 33.9997 7.32744 33.8029 6.98301 33.4585L0.438927 27.308C0.143705 27.0128 -0.00390625 26.6684 -0.00390625 26.2256V6.19966C-0.00390625 5.75683 0.143705 5.4124 0.438927 5.11718L5.21168 0.541242C5.55611 0.196815 5.99894 0 6.49098 0H33.9466C34.4879 0 34.7339 0.246018 34.7339 0.78726Z" fill="white"/>
</svg>
