<svg width="185" height="34" viewBox="0 0 185 34" fill="none" xmlns="http://www.w3.org/2000/svg">
<path d="M184.147 29.0841H179.505V33.9998H155.063V29.3572H150.147V4.84736H154.79V0H179.3V4.64254H184.147V29.0841ZM174.384 29.0841V4.84736H159.91V29.0841H174.384Z" fill="white"/>
<path d="M146.61 19.3212H136.984V24.1002H141.763V29.0159H146.61V33.9998H132.136V29.3572H127.289V24.3051H122.51V33.9998H112.61V0H141.763V4.64254H146.61V19.3212ZM136.847 14.4738V4.84736H122.373V19.3212H132.205V14.4738H136.847Z" fill="white"/>
<path d="M101.768 4.71081H92.2095V33.9998H82.3782V4.9839H72.6152V0H101.768V4.71081Z" fill="white"/>
<path d="M71.5369 29.0841H66.8943V33.9998H42.4527V29.3572H37.5371V24.3733H47.1635V29.0841H61.8422V19.5942H42.4527V14.6786H37.5371V4.84736H42.1796V0H61.7739V4.64254H66.6895V9.55817H57.0631V4.84736H47.3001V14.3373H66.6895V19.2529H71.5369V29.0841Z" fill="white"/>
<path d="M33.9998 33.9998H24.3733V24.3051H9.89953V33.9998H0V9.69471H4.64254V4.84736H9.55817V0H24.2368V4.64254H29.1524V9.48989H33.9998V33.9998ZM24.2368 19.3212V9.48989H19.3894V4.84736H14.4055V9.76299H9.76299V19.3212H24.2368Z" fill="white"/>
</svg>
