<svg width="205" height="34" viewBox="0 0 205 34" fill="none" xmlns="http://www.w3.org/2000/svg">
<path d="M168.505 33.9998V10.1999H160.005V33.9998H168.505ZM151.554 0H171.905L195.705 23.7998V0H204.205V33.9998H195.705L168.505 6.79996H158.305L151.554 0Z" fill="white"/>
<path d="M159.998 6.79996H114.098L107.59 0H166.798L159.998 6.79996ZM129.398 27.1998V33.9998H115.798L122.598 27.1998H129.398ZM132.798 10.1999V33.9998H158.298L151.498 27.1998H141.298V10.1999H132.798Z" fill="white"/>
<path d="M83.5058 33.9998H75.0059V0H83.5058V33.9998ZM86.9058 13.5999H90.3057L103.906 0H114.106L97.1057 16.9999L114.106 33.9998H103.906L90.3057 20.3999H86.9058V13.5999Z" fill="white"/>
<path d="M42.6917 6.79996L49.4917 0H63.0916L73.2915 10.1999V33.9998H42.6917L29.0918 20.3999L39.2917 10.1999H49.4917L39.2917 20.3999L46.0917 27.1998H64.7915V11.8999L59.6916 6.79996H42.6917Z" fill="white"/>
<path d="M17.1962 33.9998H8.69628V10.1999H17.1962V33.9998ZM6.99629 6.79996L0.390625 0H25.6962L35.8961 10.1999L30.7961 15.2999H20.5962L25.6962 10.1999L22.2962 6.79996H6.99629Z" fill="white"/>
</svg>
