<svg width="92" height="34" viewBox="0 0 92 34" fill="none" xmlns="http://www.w3.org/2000/svg">
<path d="M76.8068 24.0151H85.3516C87.1056 24.0151 88.005 23.1156 88.005 21.2717V13.8062C88.005 12.1872 87.2855 11.5576 85.3516 11.5576H76.8068C75.1877 11.5576 74.0634 12.2322 74.0634 13.8062V21.4067C74.0634 23.1606 74.9179 24.0151 76.8068 24.0151ZM91.423 14.7057V25.6341C91.423 31.3907 88.8146 33.9991 83.8675 33.9991H78.2009C73.2089 33.9991 70.6904 31.3007 70.6904 25.6341V15.0655C70.6904 10.928 73.2089 8.58936 76.9417 8.58936H84.9019C89.2643 8.58936 91.423 10.928 91.423 14.7057Z" fill="white"/>
<path d="M67.9998 25.05L67.9548 32.9203C67.9548 33.4599 67.4601 33.9996 66.8755 33.9996C61.5237 33.9546 59.5898 30.8965 59.5898 25.3198V1.07935C59.5898 0.494702 60.0845 0 60.6692 0H61.8385C62.4231 0 62.9178 0.494702 62.9178 1.07935V20.8675C62.9178 23.2061 63.8623 24.0156 65.7961 24.0156H66.2908C66.7406 24.0156 66.8305 23.9706 67.0554 23.9706C67.64 23.9706 67.9998 24.4203 67.9998 25.05Z" fill="white"/>
<path d="M55.6264 25.5447V32.9203C55.6264 33.5049 55.0867 33.9996 54.547 33.9996H46.8567C46.317 33.9996 45.7773 33.5049 45.7773 32.9203V24.4653C45.7773 23.1161 44.9228 22.0818 43.2138 22.0818H40.5604V32.9203C40.5604 33.5049 40.0657 33.9996 39.526 33.9996H38.2668C37.7271 33.9996 37.2324 33.5049 37.2324 32.9203V1.07935C37.2324 0.494702 37.7271 0 38.2668 0H46.0022C46.5868 0 47.0815 0.494702 47.0815 1.07935V15.4707L52.0735 9.03958C52.3434 8.67979 52.6132 8.58985 52.973 8.58985H54.547C55.2216 8.58985 55.6264 9.03958 55.6264 9.57925C55.6264 9.84909 55.5814 10.074 55.4015 10.2988L48.2958 19.2485H48.7905C53.3777 19.2485 55.6264 21.4072 55.6264 25.5447Z" fill="white"/>
<path d="M28.976 1.07935V4.31741C28.976 4.90206 28.4813 5.39676 27.8967 5.39676H24.4787C23.939 5.39676 23.4443 4.90206 23.4443 4.31741V1.07935C23.4443 0.494702 23.939 0 24.4787 0H27.8967C28.4813 0 28.976 0.494702 28.976 1.07935ZM33.2934 9.6692V32.9203C33.2934 33.5049 32.7987 33.9996 32.2141 33.9996H24.4787C23.939 33.9996 23.4443 33.5049 23.4443 32.9203V9.6692C23.4443 9.08455 23.939 8.58985 24.4787 8.58985H32.2141C32.7987 8.58985 33.2934 9.08455 33.2934 9.6692Z" fill="white"/>
<path d="M9.11149 33.9996H1.4211C0.881422 33.9996 0.386719 33.5049 0.386719 32.9203V24.7801C0.386719 24.1955 0.881422 23.7008 1.4211 23.7008H9.11149C9.65116 23.7008 10.1908 24.1955 10.1908 24.7801V32.9203C10.1908 33.5049 9.65116 33.9996 9.11149 33.9996ZM12.2146 5.6666H3.66975V16.0104H12.2146C14.2384 16.0104 15.2278 14.8411 15.2278 12.5475V8.90466C15.2278 6.79093 14.2384 5.6666 12.2146 5.6666ZM0.386719 20.5976V1.07935C0.386719 0.494702 0.881422 0 1.4211 0H12.3046C17.9262 0 20.7595 3.05817 20.7595 8.76974V12.3226C20.7595 18.5289 17.9262 21.632 12.3046 21.632H1.4211C0.881422 21.632 0.386719 21.1373 0.386719 20.5976Z" fill="white"/>
</svg>
