<svg width="171" height="34" viewBox="0 0 171 34" fill="none" xmlns="http://www.w3.org/2000/svg">
<path d="M150.205 0H170.605V6.79993H157.005V13.5999H170.605V20.3998H157.005V27.1997H170.605V33.9997H150.205V0Z" fill="white"/>
<path d="M146.805 0V20.3998H139.767L148.505 33.9997H140.141L131.403 20.3998H129.805V33.9997H123.005V6.79993H119.605V0H146.805ZM129.805 6.79993V13.5999H140.005V6.79993H129.805Z" fill="white"/>
<path d="M89 0H116.2V33.9997H89V0ZM95.7999 6.79993V27.1997H109.4V6.79993H95.7999Z" fill="white"/>
<path d="M61.8076 0H85.6074V6.79993H68.6075V27.1997H85.6074V33.9997H61.8076V0Z" fill="white"/>
<path d="M58.422 33.9992H51.6221V27.1992H58.422V33.9992Z" fill="white"/>
<path d="M34.6368 27.1997V6.79993H27.8369V0H48.2367V6.79993H41.4368V27.1997H48.2367V33.9997H27.8369V27.1997H34.6368Z" fill="white"/>
<path d="M24.4433 0V33.9997H17.6434V20.3998H7.44349V33.9997H0.643555V0H24.4433ZM7.44349 6.79993V13.5999H17.6434V6.79993H7.44349Z" fill="white"/>
</svg>
